<?xml version="1.0"?>
<svg width="59.986" height="59.986" xmlns="http://www.w3.org/2000/svg" xmlns:svg="http://www.w3.org/2000/svg">

 <g class="layer" display="inline">
  <title>Calque 2</title>
  <rect fill="#ffffff" height="48.322144" id="svg_18" stroke-dasharray="null" stroke-linecap="null" stroke-linejoin="null" stroke-width="null" transform="rotate(45, 29.9588, 30.014)" width="2.445083" x="28.736251" y="5.852926"/>
  <rect fill="#ffffff" height="48.322144" id="svg_19" stroke-dasharray="null" stroke-linecap="null" stroke-linejoin="null" stroke-width="null" transform="rotate(-45, 29.9046, 29.9984)" width="2.445083" x="28.682082" y="5.837304"/>
 </g>
 <g class="layer">
  <title>Layer 1</title>
  <path d="m42,16.579l0,-6.479c0,-1.127 -0.584,-2.134 -1.563,-2.693c-0.978,-0.561 -2.143,-0.553 -3.115,0.019c-0.063,0.037 -0.121,0.081 -0.174,0.131l-13.242,12.327c-0.149,0.072 -0.313,0.109 -0.479,0.109l-8.324,0c-1.711,0 -3.104,1.393 -3.104,3.104l0,12.793c0,1.711 1.392,3.104 3.104,3.104l4.482,0l22.415,-22.415zm-20.414,20.414l-6.482,0c-0.608,0 -1.104,-0.495 -1.104,-1.104l0,-12.793c0,-0.608 0.495,-1.104 1.104,-1.104l8.324,0c0.551,0 1.095,-0.147 1.572,-0.428c0.063,-0.036 0.122,-0.08 0.176,-0.131l13.244,-12.33c0.465,-0.226 0.868,-0.053 1.025,0.037c0.166,0.097 0.555,0.382 0.555,0.959l0,8.479l-18.414,18.415zm18.414,-15.586l0,27.479c0,0.577 -0.389,0.862 -0.556,0.958c-0.158,0.09 -0.562,0.262 -1.025,0.037l-13.244,-12.33c-0.054,-0.051 -0.113,-0.095 -0.176,-0.131c-0.224,-0.132 -0.466,-0.229 -0.713,-0.3l15.714,-15.713zm-17.586,17.586l1.013,0c0.166,0 0.329,0.037 0.479,0.109l13.242,12.328c0.053,0.05 0.112,0.094 0.174,0.131c0.492,0.289 1.033,0.434 1.574,0.434c0.529,0 1.058,-0.138 1.541,-0.415c0.979,-0.56 1.563,-1.567 1.563,-2.693l0,-29.48l-19.586,19.586z" fill="#ffffff" id="svg_1"/>
  <g id="svg_2"/>
  <g id="svg_3"/>
  <g id="svg_4"/>
  <g id="svg_5"/>
  <g id="svg_6"/>
  <g id="svg_7"/>
  <g id="svg_8"/>
  <g id="svg_9"/>
  <g id="svg_10"/>
  <g id="svg_11"/>
  <g id="svg_12"/>
  <g id="svg_13"/>
  <g id="svg_14"/>
  <g id="svg_15"/>
  <g id="svg_16"/>
 </g>
</svg>