<?xml version="1.0" encoding="UTF-8" standalone="no"?>
<svg
   xmlns:dc="http://purl.org/dc/elements/1.1/"
   xmlns:cc="http://creativecommons.org/ns#"
   xmlns:rdf="http://www.w3.org/1999/02/22-rdf-syntax-ns#"
   xmlns:svg="http://www.w3.org/2000/svg"
   xmlns="http://www.w3.org/2000/svg"
   xmlns:sodipodi="http://sodipodi.sourceforge.net/DTD/sodipodi-0.dtd"
   xmlns:inkscape="http://www.inkscape.org/namespaces/inkscape"
   width="60"
   height="60"
   version="1.1"
   id="svg26"
   sodipodi:docname="volume2.svg"
   inkscape:version="0.92.2 (5c3e80d, 2017-08-06)">
  <metadata
     id="metadata32">
    <rdf:RDF>
      <cc:Work
         rdf:about="">
        <dc:format>image/svg+xml</dc:format>
        <dc:type
           rdf:resource="http://purl.org/dc/dcmitype/StillImage" />
        <dc:title></dc:title>
      </cc:Work>
    </rdf:RDF>
  </metadata>
  <defs
     id="defs30" />
  <sodipodi:namedview
     pagecolor="#000000"
     bordercolor="#666666"
     borderopacity="1"
     objecttolerance="10"
     gridtolerance="10"
     guidetolerance="10"
     inkscape:pageopacity="0"
     inkscape:pageshadow="2"
     inkscape:window-width="1920"
     inkscape:window-height="1016"
     id="namedview28"
     showgrid="false"
     inkscape:zoom="5.5625733"
     inkscape:cx="36.810369"
     inkscape:cy="10.981024"
     inkscape:window-x="0"
     inkscape:window-y="27"
     inkscape:window-maximized="1"
     inkscape:current-layer="svg_1" />
  <g
     class="layer"
     id="g24">
    <title
       id="title2">Layer 1</title>
    <g
       id="svg_1">
      <path
         d="M 34.437,7.413 C 35.416,7.973 36,8.979 36,10.106 v 38.788 c 0,1.127 -0.584,2.133 -1.562,2.693 -0.483,0.277 -1.012,0.415 -1.541,0.415 -0.541,0 -1.082,-0.145 -1.574,-0.434 -0.062,-0.037 -0.121,-0.081 -0.174,-0.131 L 17.907,39.109 C 17.757,39.037 17.594,39 17.428,39 H 9.104 C 7.392,39 6,37.607 6,35.897 V 23.104 C 6,21.393 7.392,20 9.104,20 h 8.323 c 0.166,0 0.329,-0.037 0.479,-0.109 L 31.148,7.563 c 0.053,-0.05 0.111,-0.094 0.174,-0.131 0.972,-0.572 2.136,-0.58 3.115,-0.019 z"
         id="svg_2"
         style="fill:#ffffff;fill-opacity:1"
         inkscape:connector-curvature="0"
         sodipodi:nodetypes="csscscccsssssscccc" />
      <path
         d="m43.248,17.293c-0.391,-0.391 -1.023,-0.391 -1.414,0s-0.391,1.023 0,1.414c6.238,6.238 6.238,16.39 0,22.628c-0.391,0.391 -0.391,1.023 0,1.414c0.195,0.195 0.451,0.293 0.707,0.293s0.512,-0.098 0.707,-0.293c7.018,-7.019 7.018,-18.437 0,-25.456z"
         fill="#ffffff"
         id="svg_3" />
      <path
         d="m39.707,20.293c-0.391,-0.391 -1.023,-0.391 -1.414,0s-0.391,1.023 0,1.414c4.297,4.297 4.297,11.289 0,15.586c-0.391,0.391 -0.391,1.023 0,1.414c0.195,0.195 0.451,0.293 0.707,0.293s0.512,-0.098 0.707,-0.293c5.077,-5.077 5.077,-13.337 0,-18.414z"
         fill="#ffffff"
         id="svg_4" />
    </g>
    <g
       id="svg_7" />
    <g
       id="svg_8" />
    <g
       id="svg_9" />
    <g
       id="svg_10" />
    <g
       id="svg_11" />
    <g
       id="svg_12" />
    <g
       id="svg_13" />
    <g
       id="svg_14" />
    <g
       id="svg_15" />
    <g
       id="svg_16" />
    <g
       id="svg_17" />
    <g
       id="svg_18" />
    <g
       id="svg_19" />
    <g
       id="svg_20" />
    <g
       id="svg_21" />
  </g>
</svg>
